<svg width="15" height="14" viewBox="0 0 15 14" fill="none" xmlns="http://www.w3.org/2000/svg">
<path d="M3.87539 13.125H1.1543V4.36231H3.87539V13.125ZM2.51338 3.16699C1.64326 3.16699 0.9375 2.44629 0.9375 1.57617C0.9375 1.15822 1.10353 0.757393 1.39906 0.461858C1.6946 0.166323 2.09543 0.000293732 2.51338 0.000293732C2.93133 0.000293732 3.33216 0.166323 3.62769 0.461858C3.92323 0.757393 4.08926 1.15822 4.08926 1.57617C4.08926 2.44629 3.3832 3.16699 2.51338 3.16699ZM14.0596 13.125H11.3443V8.85938C11.3443 7.84277 11.3238 6.53906 9.92959 6.53906C8.51484 6.53906 8.29805 7.64356 8.29805 8.78613V13.125H5.57988V4.36231H8.18965V5.55762H8.22773C8.59102 4.86914 9.47842 4.14258 10.8023 4.14258C13.5562 4.14258 14.0625 5.95606 14.0625 8.31152V13.125H14.0596Z" fill="white"/>
</svg>
